<svg width="50" height="50" viewBox="0 0 50 50" fill="none" xmlns="http://www.w3.org/2000/svg">
<circle cx="25" cy="25" r="25" fill="#0E2A55"/>
<path d="M35.0798 15.5477H32.2307V32.2152C32.2307 35.3176 31.3601 37.6443 29.619 39.1955C27.9095 40.7151 25.6619 41.4749 22.876 41.4749C20.2485 41.4749 18.2066 40.8892 16.7504 39.7179C15.3258 38.5466 14.2811 37.1853 13.6163 35.6341L18.08 32.2626C18.6182 33.6556 19.2513 34.5578 19.9794 34.9693C20.7392 35.3809 21.499 35.5866 22.2587 35.5866C23.5567 35.5866 24.4747 35.2701 25.0129 34.6369C25.5827 34.0038 25.8676 33.2124 25.8676 32.2626V15.5477H20.4543V10.1343H35.0798V15.5477Z" fill="#F9F3EC"/>
</svg>
